<svg width="156" height="47" viewBox="0 0 156 47" fill="none" xmlns="http://www.w3.org/2000/svg">
<path d="M21.2404 16.5087C20.6738 16.6625 20.1347 16.8837 19.6327 17.1635C19.5031 17.0556 19.3994 16.9128 19.3377 16.7423L16.4216 8.70199C16.2358 8.18954 16.4991 7.62299 17.0097 7.43654C17.1208 7.39591 17.2344 7.37687 17.3459 7.37687C17.7478 7.37687 18.1251 7.62578 18.2704 8.02654L21.1865 16.0669C21.2394 16.2132 21.2559 16.3639 21.2404 16.5087Z" fill="white"/>
<path d="M16.1146 2.09967C15.9288 1.5873 15.3642 1.32311 14.8537 1.5096C14.3432 1.69609 14.0799 2.26263 14.2658 2.77501L15.4394 6.01119C15.6252 6.52356 16.1897 6.78775 16.7003 6.60126C17.2108 6.41477 17.474 5.84823 17.2882 5.33585L16.1146 2.09967Z" fill="white"/>
<path d="M16.1511 21.6444C16.0058 22.1961 15.9239 22.7736 15.9137 23.3687C15.7552 23.4277 15.5796 23.4465 15.4013 23.4149L7.00502 21.9291C6.47012 21.8344 6.1129 21.3224 6.20707 20.7853C6.29128 20.3065 6.70634 19.9694 7.17484 19.9694C7.23152 19.9694 7.2889 19.9743 7.34674 19.9845L15.743 21.4703C15.8957 21.4972 16.0338 21.5583 16.1511 21.6444Z" fill="white"/>
<path d="M1.15473 18.8885C0.619677 18.7938 0.109453 19.1523 0.0151096 19.6893C-0.0792339 20.2263 0.278029 20.7383 0.813078 20.833L4.19246 21.4311C4.72751 21.5257 5.23773 21.1672 5.33208 20.6302C5.42642 20.0932 5.06916 19.5812 4.53411 19.4865L1.15473 18.8885Z" fill="white"/>
<path d="M19.4054 29.7047C19.3769 29.8714 19.3054 30.0328 19.1893 30.1718L13.7091 36.7264C13.36 37.1441 12.7395 37.1987 12.3233 36.848C12.0914 36.6528 11.9718 36.373 11.9718 36.0913C11.9718 35.8673 12.0472 35.6423 12.202 35.4572L17.6822 28.9027C17.7824 28.7829 17.9048 28.693 18.0383 28.634C18.4482 29.0434 18.9073 29.4033 19.4054 29.7047Z" fill="white"/>
<path d="M8.15673 40.2876C7.8075 40.7053 7.86178 41.3281 8.27798 41.6785C8.69417 42.029 9.31467 41.9745 9.6639 41.5569L11.8696 38.9187C12.2189 38.501 12.1646 37.8783 11.7484 37.5278C11.3322 37.1773 10.7117 37.2318 10.3625 37.6495L8.15673 40.2876Z" fill="white"/>
<path d="M29.2539 39.5603C29.1428 39.6009 29.0292 39.62 28.9177 39.62C28.5158 39.62 28.1385 39.3711 27.9932 38.9703L25.0772 30.9299C25.0242 30.7837 25.0078 30.633 25.0233 30.4881C25.5899 30.3344 26.1289 30.1131 26.631 29.8333C26.7605 29.9413 26.8642 30.0841 26.9259 30.2545L29.842 38.2948C30.0278 38.8073 29.7645 39.3738 29.2539 39.5603Z" fill="white"/>
<path d="M30.1387 44.898C30.3245 45.4104 30.889 45.6746 31.3996 45.4881C31.9101 45.3016 32.1734 44.735 31.9875 44.2227L30.8139 40.9865C30.6281 40.4741 30.0636 40.2099 29.553 40.3964C29.0425 40.5829 28.7793 41.1494 28.9651 41.6618L30.1387 44.898Z" fill="white"/>
<path d="M40.0405 26.2119C39.9565 26.6907 39.5412 27.0279 39.0729 27.0279C39.0162 27.0279 38.9589 27.023 38.901 27.0128L30.5048 25.527C30.3521 25.5 30.214 25.439 30.0967 25.3528C30.242 24.8011 30.3239 24.2237 30.334 23.6286C30.4925 23.5696 30.6681 23.5508 30.8465 23.5824L39.2425 25.0682C39.7776 25.1629 40.1348 25.6749 40.0405 26.2119Z" fill="white"/>
<path d="M45.0986 28.1072C45.6336 28.2019 46.1438 27.8433 46.2382 27.3063C46.3325 26.7694 45.9753 26.2573 45.4402 26.1626L42.0608 25.5646C41.5258 25.4699 41.0156 25.8285 40.9212 26.3654C40.8269 26.9024 41.1842 27.4145 41.7192 27.5092L45.0986 28.1072Z" fill="white"/>
<path d="M34.2637 10.9061C34.2637 11.1302 34.1883 11.3552 34.0335 11.5402L28.5533 18.0948C28.4531 18.2146 28.3308 18.3044 28.1973 18.3634C27.7873 17.954 27.3283 17.5941 26.8302 17.2928C26.8586 17.126 26.9301 16.9647 27.0462 16.8256L32.5264 10.2711C32.8756 9.85334 33.4961 9.79877 33.9123 10.1494C34.1441 10.3447 34.2637 10.6244 34.2637 10.9061Z" fill="white"/>
<path d="M38.0805 6.71003C38.4297 6.29234 38.3754 5.66961 37.9592 5.31912C37.543 4.96864 36.9225 5.02312 36.5733 5.44081L34.3676 8.07897C34.0183 8.49666 34.0726 9.11939 34.4888 9.46988C34.905 9.82036 35.5255 9.76588 35.8747 9.34819L38.0805 6.71003Z" fill="white"/>
<path d="M18.973 17.5787C18.4987 17.9144 18.0665 18.3066 17.6864 18.745C17.5275 18.6879 17.3808 18.5892 17.2644 18.4499L15.678 16.5526C15.3286 16.1349 15.383 15.5122 15.7992 15.1616C15.9836 15.0065 16.2078 14.9308 16.4311 14.9308C16.7117 14.9308 16.9905 15.0506 17.1851 15.2832L18.7715 17.1807C18.8714 17.3003 18.9383 17.4368 18.973 17.5787Z" fill="white"/>
<path d="M9.24984 5.79546C8.90061 5.37776 8.28011 5.32328 7.86392 5.67377C7.44772 6.02425 7.39344 6.64699 7.74267 7.06468L13.8846 14.4107C14.2338 14.8284 14.8543 14.8829 15.2705 14.5324C15.6867 14.1819 15.741 13.5591 15.3917 13.1415L9.24984 5.79546Z" fill="white"/>
<path d="M16.299 25.8544C16.1706 25.9635 16.0125 26.0408 15.8349 26.0724L13.4044 26.5024C12.8693 26.5971 12.3592 26.2386 12.2648 25.7016C12.2546 25.6435 12.2497 25.5857 12.2497 25.5288C12.2497 25.0586 12.5854 24.6423 13.0627 24.5578L15.4931 24.1278C15.6463 24.1006 15.7976 24.1106 15.9376 24.1517C15.9899 24.7426 16.1132 25.3131 16.299 25.8544Z" fill="white"/>
<path d="M10.3197 25.0427L0.909743 26.7079C0.374694 26.8026 0.0174315 27.3147 0.111775 27.8517C0.206119 28.3886 0.716342 28.7472 1.25139 28.6525L10.6613 26.9873C11.1964 26.8926 11.5537 26.3805 11.4593 25.8436C11.365 25.3066 10.8547 24.948 10.3197 25.0427Z" fill="white"/>
<path d="M21.7165 31.1173L20.8725 33.4448C20.6867 33.9573 20.1222 34.2215 19.6116 34.0351C19.212 33.889 18.964 33.5103 18.964 33.1072C18.964 32.9951 18.9832 32.8811 19.0237 32.7696L19.8677 30.4421C19.9206 30.2958 20.0044 30.1698 20.1092 30.0688C20.6291 30.3107 21.1825 30.4923 21.7604 30.6044C21.7903 30.7707 21.7782 30.9471 21.7165 31.1173Z" fill="white"/>
<path d="M18.0614 35.3967L14.7934 44.4078C14.6076 44.9202 14.8708 45.4868 15.3813 45.6733C15.8919 45.8597 16.4564 45.5956 16.6422 45.0832L19.9103 36.072C20.0961 35.5596 19.8328 34.9931 19.3223 34.8066C18.8118 34.6201 18.2473 34.8843 18.0614 35.3967Z" fill="white"/>
<path d="M30.455 31.833C30.2707 31.9881 30.0465 32.0638 29.8232 32.0638C29.5426 32.0638 29.2638 31.944 29.0692 31.7113L27.4828 29.8139C27.3828 29.6943 27.316 29.5577 27.2813 29.4159C27.7556 29.0801 28.1877 28.688 28.5679 28.2496C28.7268 28.3067 28.8735 28.4054 28.9899 28.5447L30.5763 30.4419C30.9256 30.8596 30.8713 31.4824 30.455 31.833Z" fill="white"/>
<path d="M32.3731 32.5842C32.0239 32.1665 31.4034 32.1121 30.9872 32.4625C30.571 32.813 30.5167 33.4358 30.8659 33.8535L37.0078 41.1995C37.3571 41.6171 37.9776 41.6716 38.3938 41.3211C38.81 40.9707 38.8642 40.3479 38.515 39.9302L32.3731 32.5842Z" fill="white"/>
<path d="M34.0009 21.4672C34.0009 21.9374 33.6652 22.3537 33.1879 22.4383L30.7575 22.8683C30.6043 22.8955 30.453 22.8855 30.313 22.8444C30.2608 22.2534 30.1374 21.6829 29.9517 21.1417C30.0801 21.0326 30.2381 20.9553 30.4158 20.9237L32.8462 20.4937C33.3813 20.3989 33.8915 20.7574 33.9859 21.2945C33.996 21.3525 34.0009 21.4104 34.0009 21.4672Z" fill="white"/>
<path d="M45.0106 18.344L35.6007 20.0092C35.0656 20.1039 34.7084 20.616 34.8027 21.153C34.8971 21.6899 35.4073 22.0485 35.9423 21.9538L45.3523 20.2886C45.8873 20.1939 46.2446 19.6818 46.1503 19.1449C46.0559 18.6079 45.5457 18.2493 45.0106 18.344Z" fill="white"/>
<path d="M27.3102 13.8901C27.3102 14.0022 27.291 14.1162 27.2506 14.2277L26.4066 16.5552C26.3536 16.7014 26.2698 16.8275 26.165 16.9285C25.6452 16.6866 25.0917 16.505 24.5138 16.3929C24.4837 16.2266 24.496 16.0501 24.5578 15.8799L25.4018 13.5525C25.5875 13.04 26.1521 12.7758 26.6627 12.9622C27.0622 13.1083 27.3102 13.4867 27.3102 13.8901Z" fill="white"/>
<path d="M29.613 1.91312L26.345 10.9243C26.1591 11.4367 26.4224 12.0032 26.9329 12.1897C27.4434 12.3762 28.008 12.112 28.1938 11.5997L31.4618 2.58846C31.6476 2.07609 31.3844 1.50954 30.8739 1.32305C30.3633 1.13657 29.7988 1.40075 29.613 1.91312Z" fill="white"/>
<path d="M23.8355 9.25557V15.8507C23.8355 16.007 23.7994 16.1547 23.735 16.2859C23.5349 16.2689 23.3323 16.2603 23.1277 16.2603C22.7446 16.2603 22.3686 16.2903 22.0017 16.3481C21.9168 16.202 21.868 16.0321 21.868 15.8507V9.25557C21.868 8.71038 22.3085 8.26829 22.8517 8.26829C23.1236 8.26829 23.3693 8.37881 23.5474 8.5576C23.7253 8.73615 23.8355 8.98298 23.8355 9.25557Z" fill="white"/>
<path d="M23.8355 0.987279C23.8355 0.44202 23.395 0 22.8517 0C22.3084 0 21.868 0.44202 21.868 0.987279V6.40803C21.868 6.95329 22.3084 7.39531 22.8517 7.39531C23.395 7.39531 23.8355 6.95329 23.8355 6.40803V0.987279Z" fill="white"/>
<path d="M17.1919 19.3636C16.8624 19.838 16.588 20.3537 16.3782 20.9014C16.21 20.9021 16.0392 20.8596 15.8831 20.7691L10.1921 17.4715C9.72174 17.1989 9.56048 16.595 9.8321 16.1229C10.1037 15.6507 10.7055 15.4888 11.1758 15.7614L16.8668 19.059C17.0014 19.137 17.1106 19.2422 17.1919 19.3636Z" fill="white"/>
<path d="M4.04425 11.6277C3.57373 11.3551 2.97209 11.5169 2.70044 11.9891C2.42879 12.4613 2.59 13.0651 3.06051 13.3377L7.73817 16.0481C8.20869 16.3207 8.81033 16.1589 9.08198 15.6867C9.35364 15.2145 9.19243 14.6107 8.72191 14.3381L4.04425 11.6277Z" fill="white"/>
<path d="M17.5117 28.0517C17.4282 28.1992 17.3058 28.3266 17.1489 28.4177L11.458 31.715C10.9874 31.9878 10.3858 31.826 10.1142 31.3537C10.0247 31.1982 9.98211 31.0284 9.98211 30.8608C9.98211 30.5197 10.1586 30.1879 10.4742 30.0052L16.1652 26.7076C16.2996 26.6295 16.4447 26.5873 16.5895 26.5775C16.8377 27.1072 17.1482 27.6017 17.5117 28.0517Z" fill="white"/>
<path d="M8.02011 31.4285L3.34245 34.1389C2.87194 34.4115 2.71073 35.0154 2.98238 35.4876C3.25403 35.9598 3.85567 36.1216 4.32619 35.8489L9.00385 33.1386C9.47436 32.8659 9.63557 32.2621 9.36392 31.7899C9.09227 31.3177 8.49063 31.1559 8.02011 31.4285Z" fill="white"/>
<path d="M24.3873 31.1498V37.7449C24.3873 38.2901 23.9467 38.7322 23.4035 38.7322C23.1317 38.7322 22.886 38.6217 22.7078 38.4429C22.5299 38.2644 22.4198 38.0175 22.4198 37.7449V31.1498C22.4198 30.9935 22.4559 30.8458 22.5202 30.7147C22.7203 30.7316 22.923 30.7402 23.1275 30.7402C23.5106 30.7402 23.8866 30.7102 24.2535 30.6524C24.3384 30.7985 24.3873 30.9684 24.3873 31.1498Z" fill="white"/>
<path d="M24.3873 40.592C24.3873 40.0467 23.9468 39.6047 23.4035 39.6047C22.8602 39.6047 22.4198 40.0467 22.4198 40.592V46.0127C22.4198 46.558 22.8602 47 23.4035 47C23.9468 47 24.3873 46.558 24.3873 46.0127V40.592Z" fill="white"/>
<path d="M36.3932 30.8753C36.2109 31.192 35.8802 31.3692 35.5402 31.3692C35.3733 31.3692 35.2042 31.3264 35.0494 31.2368L29.3583 27.9392C29.2236 27.8612 29.1142 27.756 29.0334 27.6346C29.3629 27.1602 29.6373 26.6445 29.8471 26.0968C30.0153 26.0961 30.1858 26.1386 30.342 26.2291L36.0332 29.5267C36.5035 29.7993 36.6648 30.4033 36.3932 30.8753Z" fill="white"/>
<path d="M38.5017 30.9512C38.0312 30.6786 37.4295 30.8404 37.1579 31.3126C36.8862 31.7848 37.0474 32.3886 37.5179 32.6612L42.1956 35.3716C42.6661 35.6442 43.2678 35.4824 43.5394 35.0102C43.8111 34.538 43.6498 33.9342 43.1793 33.6616L38.5017 30.9512Z" fill="white"/>
<path d="M36.281 16.1369C36.281 16.478 36.1044 16.8098 35.7889 16.9925L30.0979 20.2901C29.9635 20.3681 29.8184 20.4104 29.6736 20.4201C29.4253 19.8905 29.1149 19.3959 28.7514 18.9459C28.8349 18.7985 28.9573 18.671 29.1142 18.58L34.8051 15.2827C35.2757 15.0098 35.8772 15.1717 36.1489 15.644C36.2384 15.7995 36.281 15.9693 36.281 16.1369Z" fill="white"/>
<path d="M41.9418 11.1492L37.2641 13.8596C36.7936 14.1323 36.6324 14.7361 36.904 15.2083C37.1757 15.6805 37.7773 15.8423 38.2478 15.5696L42.9255 12.8593C43.396 12.5866 43.5572 11.9828 43.2856 11.5106C43.0139 11.0384 42.4123 10.8766 41.9418 11.1492Z" fill="white"/>
<path d="M131.04 14.2649C130.401 14.2649 129.848 14.0304 129.379 13.5599C128.91 13.0895 128.676 12.5337 128.676 11.8935C128.676 11.2534 128.911 10.6926 129.379 10.2124C129.848 9.73111 130.401 9.49172 131.04 9.49172C131.679 9.49172 132.261 9.73111 132.729 10.2124C133.198 10.6926 133.433 11.2534 133.433 11.8935C133.433 12.5337 133.198 13.0895 132.729 13.5599C132.261 14.0304 131.698 14.2649 131.04 14.2649Z" fill="white"/>
<path d="M66.4838 16.0684H70.2528V30.3604C70.2528 32.6831 69.4896 34.4544 67.9642 35.6751C66.4389 36.8957 64.5982 37.5066 62.4447 37.5066C60.8294 37.5066 59.4075 37.1962 58.1815 36.5755C56.9544 35.9549 56.012 35.0447 55.3536 33.8438L58.6454 31.9526C59.4026 33.3527 60.7088 34.0539 62.5641 34.0539C63.7804 34.0539 64.7384 33.7337 65.436 33.0936C66.1347 32.4523 66.484 31.5418 66.484 30.3604V28.7393C65.3469 30.2604 63.751 31.0215 61.696 31.0215C59.6411 31.0215 57.8113 30.2762 56.3859 28.7846C54.9603 27.2941 54.247 25.4772 54.247 23.3343C54.247 21.1914 54.9651 19.4015 56.4005 17.8999C57.837 16.3983 59.6023 15.6481 61.696 15.6481C63.7898 15.6481 65.3469 16.4092 66.484 17.9303L66.4838 16.0684ZM59.2878 26.292C60.0754 27.0629 61.0774 27.4478 62.2948 27.4478C63.5122 27.4478 64.5128 27.0631 65.3018 26.292C66.0893 25.5223 66.4838 24.535 66.4838 23.3341C66.4838 22.1332 66.0893 21.1777 65.3018 20.4069C64.5128 19.6371 63.5111 19.251 62.2948 19.251C61.0786 19.251 60.0756 19.6371 59.2878 20.4069C58.5003 21.1777 58.1058 22.1539 58.1058 23.3341C58.1058 24.5143 58.5003 25.5223 59.2878 26.292Z" fill="white"/>
<path d="M75.518 25.1668C76.0368 27.0482 77.4427 27.9891 79.7362 27.9891C81.2115 27.9891 82.3292 27.4882 83.0865 26.4875L86.198 28.2884C84.7226 30.4313 82.5483 31.5017 79.6765 31.5017C77.2028 31.5017 75.2184 30.7514 73.7223 29.2499C72.2261 27.7483 71.4785 25.8571 71.4785 23.5749C71.4785 21.2927 72.2163 19.427 73.6929 17.9145C75.1682 16.4043 77.0626 15.6481 79.3769 15.6481C81.5706 15.6481 83.3808 16.4092 84.8075 17.9303C86.2332 19.4514 86.9465 21.3328 86.9465 23.5749C86.9465 24.0757 86.8965 24.606 86.7968 25.1668H75.518ZM75.4584 22.1636H83.0865C82.8674 21.1422 82.4144 20.3822 81.7254 19.8814C81.0376 19.3817 80.2549 19.1312 79.3771 19.1312C78.3399 19.1312 77.4816 19.3964 76.8049 19.9265C76.1256 20.4568 75.6777 21.2021 75.4584 22.1636Z" fill="white"/>
<path d="M96.4587 15.6481C98.0937 15.6481 99.4448 16.1991 100.513 17.2999C101.579 18.4007 102.113 19.9218 102.113 21.8632V31.0814H98.2543V22.3433C98.2543 21.3428 97.9841 20.578 97.4459 20.0465C96.9078 19.5162 96.1896 19.2512 95.2924 19.2512C94.2941 19.2512 93.4969 19.5617 92.899 20.1823C92.3 20.803 92.0007 21.7341 92.0007 22.974V31.0816H88.1416V16.0684H92.0007V17.7494C92.9381 16.3493 94.4244 15.6481 96.4587 15.6481Z" fill="white"/>
<path d="M107.173 25.1668C107.692 27.0482 109.098 27.9891 111.391 27.9891C112.867 27.9891 113.984 27.4882 114.742 26.4875L117.853 28.2884C116.378 30.4313 114.204 31.5017 111.332 31.5017C108.858 31.5017 106.874 30.7514 105.378 29.2499C103.881 27.7483 103.134 25.8571 103.134 23.5749C103.134 21.2927 103.872 19.427 105.348 17.9145C106.823 16.4043 108.718 15.6481 111.032 15.6481C113.226 15.6481 115.036 16.4092 116.463 17.9303C117.888 19.4514 118.602 21.3328 118.602 23.5749C118.602 24.0757 118.552 24.606 118.452 25.1668H107.173ZM107.114 22.1636H114.742C114.523 21.1422 114.07 20.3822 113.381 19.8814C112.693 19.3817 111.91 19.1312 111.032 19.1312C109.995 19.1312 109.137 19.3964 108.46 19.9265C107.781 20.4568 107.333 21.2021 107.114 22.1636Z" fill="white"/>
<path d="M127.901 19.7909H124.52V26.0366C124.52 26.5572 124.649 26.9383 124.909 27.1779C125.168 27.4187 125.546 27.5529 126.046 27.5835C126.544 27.6128 127.162 27.6091 127.901 27.5689V31.0815C125.248 31.3819 123.378 31.1316 122.291 30.3313C121.204 29.5297 120.66 28.0992 120.66 26.0369V19.7912H118.057V16.0684H120.66V13.036L124.52 11.8644V16.0684H127.901V19.7909Z" fill="white"/>
<path d="M132.987 16.0683H129.128V31.0814H132.987V16.0683Z" fill="white"/>
<path d="M156 20.5712C156 23.2932 155.143 25.6536 153.43 27.6537L155.581 29.9104L152.649 32.5225L150.373 30.1352C148.758 31.0465 147.004 31.5011 145.109 31.5011C142.098 31.5011 139.535 30.4456 137.421 28.3331C135.306 26.222 134.249 23.6343 134.249 20.5712C134.249 17.5081 135.306 14.9217 137.421 12.8107C139.535 10.6982 142.098 9.64264 145.109 9.64264C148.121 9.64264 150.69 10.6982 152.813 12.8107C154.937 14.9217 156 17.5095 156 20.5712ZM145.12 27.4473C145.898 27.4473 146.677 27.324 147.458 27.0772L144.003 23.4548L146.934 20.8426L150.596 24.6814C151.446 23.4817 151.871 22.112 151.871 20.5714C151.871 18.5702 151.223 16.9195 149.927 15.6172C148.63 14.3171 147.025 13.6661 145.11 13.6661C143.195 13.6661 141.589 14.3173 140.293 15.6172C138.996 16.9195 138.349 18.5702 138.349 20.5714C138.349 22.5727 138.997 24.1952 140.296 25.4964C141.594 26.7976 143.202 27.4473 145.12 27.4473Z" fill="white"/>
</svg>
