<svg width="15" height="15" viewBox="0 0 15 15" fill="none" xmlns="http://www.w3.org/2000/svg">
<path d="M11.25 15V12.75H9V11.25H11.25V9H12.75V11.25H15V12.75H12.75V15H11.25ZM2.25 13.5C1.8375 13.5 1.48438 13.3531 1.19063 13.0594C0.896875 12.7656 0.75 12.4125 0.75 12V3C0.75 2.5875 0.896875 2.23438 1.19063 1.94063C1.48438 1.64688 1.8375 1.5 2.25 1.5H3V0H4.5V1.5H9V0H10.5V1.5H11.25C11.6625 1.5 12.0156 1.64688 12.3094 1.94063C12.6031 2.23438 12.75 2.5875 12.75 3V7.575C12.5 7.5375 12.25 7.51875 12 7.51875C11.75 7.51875 11.5 7.5375 11.25 7.575V6H2.25V12H7.5C7.5 12.25 7.51875 12.5 7.55625 12.75C7.59375 13 7.6625 13.25 7.7625 13.5H2.25Z" fill="#383737"/>
</svg>
