<svg width="29" height="29" viewBox="0 0 29 29" fill="none" xmlns="http://www.w3.org/2000/svg">
<path d="M28.5674 20.7393L23.2152 15.3871V17.6284L8.26248 2.67561H20.5391C21.275 2.67561 21.905 2.93765 22.4291 3.46172C22.9532 3.98579 23.2152 4.61579 23.2152 5.35172V11.373L28.5674 6.02074V20.7393ZM26.6273 28.5669L0 1.93968L1.87327 0.0664062L28.5005 26.6937L26.6273 28.5669ZM4.48248 2.67561L23.2152 21.4084C23.2152 22.1443 22.9532 22.7743 22.4291 23.2984C21.905 23.8224 21.275 24.0845 20.5391 24.0845H4.48248C3.74655 24.0845 3.11655 23.8224 2.59248 23.2984C2.06841 22.7743 1.80637 22.1443 1.80637 21.4084V5.35172C1.80637 4.61579 2.06841 3.98579 2.59248 3.46172C3.11655 2.93765 3.74655 2.67561 4.48248 2.67561ZM7.15858 18.7322H17.863V17.9963C17.863 17.0151 17.3724 16.2234 16.3912 15.6213C15.4099 15.0192 14.1165 14.7181 12.5108 14.7181C10.9051 14.7181 9.61168 15.0192 8.63044 15.6213C7.6492 16.2234 7.15858 17.0151 7.15858 17.9963V18.7322Z" fill="#ADADAD"/>
</svg>
