<svg width="27" height="27" viewBox="0 0 27 27" fill="none" xmlns="http://www.w3.org/2000/svg">
<path d="M13.3805 8.02832C15.7301 8.02832 18.0448 8.51521 20.3247 9.48899C22.6045 10.4628 24.6305 11.9234 26.4027 13.871C26.6416 14.117 26.7611 14.404 26.7611 14.732C26.7611 15.0601 26.6416 15.3471 26.4027 15.5931L23.6549 18.3607C23.4358 18.5862 23.182 18.7092 22.8933 18.7297C22.6045 18.7502 22.3407 18.6682 22.1018 18.4837L18.6372 15.7776C18.4779 15.6546 18.3584 15.5111 18.2788 15.3471C18.1991 15.1831 18.1593 14.9985 18.1593 14.7935V11.2879C17.4027 11.0419 16.6261 10.8472 15.8296 10.7037C15.0332 10.5602 14.2168 10.4884 13.3805 10.4884C12.5442 10.4884 11.7279 10.5602 10.9314 10.7037C10.135 10.8472 9.35841 11.0419 8.60177 11.2879V14.7935C8.60177 14.9985 8.56195 15.1831 8.4823 15.3471C8.40266 15.5111 8.28319 15.6546 8.12389 15.7776L4.65929 18.4837C4.42035 18.6682 4.15653 18.7502 3.86781 18.7297C3.57909 18.7092 3.32522 18.5862 3.10619 18.3607L0.358407 15.5931C0.119469 15.3471 0 15.0601 0 14.732C0 14.404 0.119469 14.117 0.358407 13.871C2.11062 11.9234 4.13164 10.4628 6.42146 9.48899C8.71128 8.51521 11.031 8.02832 13.3805 8.02832Z" fill="#FF0000"/>
</svg>
