<svg width="19" height="22" viewBox="0 0 19 22" fill="none" xmlns="http://www.w3.org/2000/svg">
<path d="M10.45 22C9.23333 22 8.2625 21.4917 7.5375 20.475C6.8125 19.4583 6.45 18.3 6.45 17C6.45 15.7 6.8125 14.5417 7.5375 13.525C8.2625 12.5083 9.23333 12 10.45 12C11.6667 12 12.6375 12.5083 13.3625 13.525C14.0875 14.5417 14.45 15.7 14.45 17C14.45 18.3 14.0875 19.4583 13.3625 20.475C12.6375 21.4917 11.6667 22 10.45 22ZM1.9 21.3L0 20.7C0.516667 19.1333 0.8875 17.5375 1.1125 15.9125C1.3375 14.2875 1.45 12.65 1.45 11C1.45 9.35 1.3375 7.7125 1.1125 6.0875C0.8875 4.4625 0.516667 2.86667 0 1.3L1.9 0.7C2.45 2.36667 2.84583 4.05833 3.0875 5.775C3.32917 7.49167 3.45 9.23333 3.45 11C3.45 12.7667 3.32917 14.5083 3.0875 16.225C2.84583 17.9417 2.45 19.6333 1.9 21.3ZM17 21.3C16.45 19.6333 16.0542 17.9417 15.8125 16.225C15.5708 14.5083 15.45 12.7667 15.45 11C15.45 9.23333 15.5708 7.49167 15.8125 5.775C16.0542 4.05833 16.45 2.36667 17 0.7L18.9 1.3C18.3833 2.86667 18.0125 4.4625 17.7875 6.0875C17.5625 7.7125 17.45 9.35 17.45 11C17.45 12.65 17.5625 14.2875 17.7875 15.9125C18.0125 17.5375 18.3833 19.1333 18.9 20.7L17 21.3ZM9.675 18.8C9.825 18.9333 10 19 10.2 19C10.4 19 10.575 18.925 10.725 18.775C10.9583 18.5417 11.1375 18.2708 11.2625 17.9625C11.3875 17.6542 11.45 17.3333 11.45 17C11.45 16.6667 11.3917 16.3458 11.275 16.0375C11.1583 15.7292 10.9833 15.4583 10.75 15.225C10.6167 15.075 10.4458 15 10.2375 15C10.0292 15 9.85 15.0667 9.7 15.2C9.55 15.3333 9.47083 15.5083 9.4625 15.725C9.45417 15.9417 9.51667 16.125 9.65 16.275L9.8 16.4875C9.9 16.6292 9.95 16.8 9.95 17C9.95 17.2 9.9 17.3708 9.8 17.5125L9.65 17.725C9.5 17.875 9.42917 18.0583 9.4375 18.275C9.44583 18.4917 9.525 18.6667 9.675 18.8ZM8.45 10C7.23333 10 6.2625 9.49167 5.5375 8.475C4.8125 7.45833 4.45 6.3 4.45 5C4.45 3.7 4.8125 2.54167 5.5375 1.525C6.2625 0.508333 7.23333 0 8.45 0C9.66667 0 10.6375 0.508333 11.3625 1.525C12.0875 2.54167 12.45 3.7 12.45 5C12.45 6.3 12.0875 7.45833 11.3625 8.475C10.6375 9.49167 9.66667 10 8.45 10ZM9.2 6.8C9.35 6.66667 9.42917 6.49167 9.4375 6.275C9.44583 6.05833 9.38333 5.875 9.25 5.725C9.16667 5.625 9.09583 5.5125 9.0375 5.3875C8.97917 5.2625 8.95 5.13333 8.95 5C8.95 4.86667 8.97917 4.7375 9.0375 4.6125C9.09583 4.4875 9.16667 4.375 9.25 4.275C9.38333 4.125 9.45 3.94583 9.45 3.7375C9.45 3.52917 9.375 3.35 9.225 3.2C9.075 3.06667 8.9 3 8.7 3C8.5 3 8.325 3.075 8.175 3.225C7.94167 3.45833 7.7625 3.72917 7.6375 4.0375C7.5125 4.34583 7.45 4.66667 7.45 5C7.45 5.33333 7.50833 5.65417 7.625 5.9625C7.74167 6.27083 7.91667 6.54167 8.15 6.775C8.3 6.925 8.475 7 8.675 7C8.875 7 9.05 6.93333 9.2 6.8Z" fill="#383737"/>
</svg>
