<svg width="42" height="47" viewBox="0 0 42 47" fill="none" xmlns="http://www.w3.org/2000/svg">
<g filter="url(#filter0_i_11202_253)">
<path d="M23.0996 46.2C20.5446 46.2 18.5059 45.1325 16.9834 42.9975C15.4609 40.8625 14.6996 38.43 14.6996 35.7C14.6996 32.97 15.4609 30.5375 16.9834 28.4025C18.5059 26.2675 20.5446 25.2 23.0996 25.2C25.6546 25.2 27.6934 26.2675 29.2159 28.4025C30.7384 30.5375 31.4996 32.97 31.4996 35.7C31.4996 38.43 30.7384 40.8625 29.2159 42.9975C27.6934 45.1325 25.6546 46.2 23.0996 46.2ZM5.1446 44.73L1.1546 43.47C2.2396 40.18 3.01835 36.8288 3.49085 33.4163C3.96335 30.0038 4.1996 26.565 4.1996 23.1C4.1996 19.635 3.96335 16.1963 3.49085 12.7838C3.01835 9.37125 2.2396 6.02 1.1546 2.73L5.1446 1.47C6.2996 4.97 7.13085 8.5225 7.63835 12.1275C8.14585 15.7325 8.3996 19.39 8.3996 23.1C8.3996 26.81 8.14585 30.4675 7.63835 34.0725C7.13085 37.6775 6.2996 41.23 5.1446 44.73ZM36.8546 44.73C35.6996 41.23 34.8684 37.6775 34.3609 34.0725C33.8534 30.4675 33.5996 26.81 33.5996 23.1C33.5996 19.39 33.8534 15.7325 34.3609 12.1275C34.8684 8.5225 35.6996 4.97 36.8546 1.47L40.8446 2.73C39.7596 6.02 38.9809 9.37125 38.5084 12.7838C38.0359 16.1963 37.7996 19.635 37.7996 23.1C37.7996 26.565 38.0359 30.0038 38.5084 33.4163C38.9809 36.8288 39.7596 40.18 40.8446 43.47L36.8546 44.73ZM21.4721 39.48C21.7871 39.76 22.1546 39.9 22.5746 39.9C22.9946 39.9 23.3621 39.7425 23.6771 39.4275C24.1671 38.9375 24.5434 38.3688 24.8059 37.7213C25.0684 37.0738 25.1996 36.4 25.1996 35.7C25.1996 35 25.0771 34.3263 24.8321 33.6788C24.5871 33.0313 24.2196 32.4625 23.7296 31.9725C23.4496 31.6575 23.0909 31.5 22.6534 31.5C22.2159 31.5 21.8396 31.64 21.5246 31.92C21.2096 32.2 21.0434 32.5675 21.0259 33.0225C21.0084 33.4775 21.1396 33.8625 21.4196 34.1775L21.7346 34.6238C21.9446 34.9213 22.0496 35.28 22.0496 35.7C22.0496 36.12 21.9446 36.4788 21.7346 36.7763L21.4196 37.2225C21.1046 37.5375 20.9559 37.9225 20.9734 38.3775C20.9909 38.8325 21.1571 39.2 21.4721 39.48ZM18.8996 21C16.3446 21 14.3059 19.9325 12.7834 17.7975C11.2609 15.6625 10.4996 13.23 10.4996 10.5C10.4996 7.77 11.2609 5.3375 12.7834 3.2025C14.3059 1.0675 16.3446 0 18.8996 0C21.4546 0 23.4934 1.0675 25.0159 3.2025C26.5384 5.3375 27.2996 7.77 27.2996 10.5C27.2996 13.23 26.5384 15.6625 25.0159 17.7975C23.4934 19.9325 21.4546 21 18.8996 21ZM20.4746 14.28C20.7896 14 20.9559 13.6325 20.9734 13.1775C20.9909 12.7225 20.8596 12.3375 20.5796 12.0225C20.4046 11.8125 20.2559 11.5763 20.1334 11.3138C20.0109 11.0513 19.9496 10.78 19.9496 10.5C19.9496 10.22 20.0109 9.94875 20.1334 9.68625C20.2559 9.42375 20.4046 9.1875 20.5796 8.9775C20.8596 8.6625 20.9996 8.28625 20.9996 7.84875C20.9996 7.41125 20.8421 7.035 20.5271 6.72C20.2121 6.44 19.8446 6.3 19.4246 6.3C19.0046 6.3 18.6371 6.4575 18.3221 6.7725C17.8321 7.2625 17.4559 7.83125 17.1934 8.47875C16.9309 9.12625 16.7996 9.8 16.7996 10.5C16.7996 11.2 16.9221 11.8738 17.1671 12.5213C17.4121 13.1688 17.7796 13.7375 18.2696 14.2275C18.5846 14.5425 18.9521 14.7 19.3721 14.7C19.7921 14.7 20.1596 14.56 20.4746 14.28Z" fill="#ADADAD"/>
</g>
<defs>
<filter id="filter0_i_11202_253" x="0" y="0" width="42" height="50.2" filterUnits="userSpaceOnUse" color-interpolation-filters="sRGB">
<feFlood flood-opacity="0" result="BackgroundImageFix"/>
<feBlend mode="normal" in="SourceGraphic" in2="BackgroundImageFix" result="shape"/>
<feColorMatrix in="SourceAlpha" type="matrix" values="0 0 0 0 0 0 0 0 0 0 0 0 0 0 0 0 0 0 127 0" result="hardAlpha"/>
<feOffset dy="4"/>
<feGaussianBlur stdDeviation="6.6"/>
<feComposite in2="hardAlpha" operator="arithmetic" k2="-1" k3="1"/>
<feColorMatrix type="matrix" values="0 0 0 0 0.487007 0 0 0 0 0.454894 0 0 0 0 0.453092 0 0 0 1 0"/>
<feBlend mode="normal" in2="shape" result="effect1_innerShadow_11202_253"/>
</filter>
</defs>
</svg>
