<svg width="104" height="31" viewBox="0 0 104 31" fill="none" xmlns="http://www.w3.org/2000/svg">
<path d="M14.1602 10.8887C13.7825 10.9901 13.4231 11.1361 13.0884 11.3206C13.0021 11.2494 12.933 11.1552 12.8918 11.0428L10.9477 5.73961C10.8239 5.40161 10.9994 5.02793 11.3398 4.90495C11.4139 4.87815 11.4896 4.8656 11.5639 4.8656C11.8318 4.8656 12.0834 5.02977 12.1803 5.2941L14.1243 10.5973C14.1596 10.6938 14.1706 10.7932 14.1602 10.8887Z" fill="black"/>
<path d="M10.7431 1.38489C10.6192 1.04694 10.2428 0.872692 9.90247 0.995696C9.56211 1.1187 9.38663 1.49238 9.51051 1.83033L10.2929 3.96483C10.4168 4.30278 10.7932 4.47703 11.1335 4.35402C11.4739 4.23102 11.6494 3.85734 11.5255 3.51939L10.7431 1.38489Z" fill="black"/>
<path d="M10.7674 14.2761C10.6705 14.64 10.6159 15.0209 10.6091 15.4134C10.5035 15.4523 10.3864 15.4647 10.2675 15.4439L4.67001 14.4639C4.31341 14.4014 4.07527 14.0637 4.13804 13.7095C4.19419 13.3937 4.47089 13.1713 4.78323 13.1713C4.82101 13.1713 4.85927 13.1745 4.89783 13.1813L10.4953 14.1612C10.5971 14.179 10.6892 14.2193 10.7674 14.2761Z" fill="black"/>
<path d="M0.769817 12.4584C0.413118 12.3959 0.0729688 12.6324 0.0100731 12.9866C-0.0528226 13.3407 0.185353 13.6785 0.542052 13.7409L2.79497 14.1354C3.15167 14.1978 3.49182 13.9613 3.55472 13.6072C3.61761 13.253 3.37944 12.9152 3.02274 12.8528L0.769817 12.4584Z" fill="black"/>
<path d="M12.9369 19.5924C12.9179 19.7024 12.8703 19.8088 12.7929 19.9006L9.13939 24.2238C8.90665 24.4993 8.49298 24.5353 8.2155 24.304C8.06095 24.1752 7.98121 23.9907 7.98121 23.8049C7.98121 23.6571 8.03149 23.5087 8.13468 23.3867L11.7881 19.0635C11.8549 18.9844 11.9365 18.9252 12.0255 18.8863C12.2988 19.1563 12.6048 19.3937 12.9369 19.5924Z" fill="black"/>
<path d="M5.43782 26.5727C5.205 26.8482 5.24119 27.2589 5.51865 27.4901C5.79611 27.7213 6.20978 27.6853 6.4426 27.4098L7.91309 25.6698C8.14591 25.3943 8.10972 24.9835 7.83225 24.7524C7.55479 24.5212 7.14113 24.5571 6.90831 24.8326L5.43782 26.5727Z" fill="black"/>
<path d="M19.5026 26.093C19.4285 26.1198 19.3528 26.1323 19.2785 26.1323C19.0106 26.1323 18.759 25.9681 18.6621 25.7038L16.7181 20.4006C16.6828 20.3041 16.6718 20.2047 16.6822 20.1092C17.0599 20.0078 17.4193 19.8618 17.754 19.6773C17.8403 19.7485 17.9094 19.8427 17.9506 19.9551L19.8947 25.2583C20.0185 25.5963 19.843 25.97 19.5026 26.093Z" fill="black"/>
<path d="M20.0925 29.6136C20.2164 29.9515 20.5927 30.1258 20.9331 30.0028C21.2734 29.8798 21.4489 29.5061 21.325 29.1681L20.5426 27.0336C20.4187 26.6957 20.0424 26.5214 19.702 26.6444C19.3617 26.7674 19.1862 27.1411 19.3101 27.4791L20.0925 29.6136Z" fill="black"/>
<path d="M26.6936 17.2887C26.6376 17.6045 26.3608 17.8269 26.0486 17.8269C26.0108 17.8269 25.9726 17.8237 25.934 17.8169L20.3365 16.8369C20.2347 16.8192 20.1426 16.7789 20.0644 16.7221C20.1613 16.3582 20.2159 15.9773 20.2227 15.5848C20.3283 15.5459 20.4454 15.5335 20.5643 15.5543L26.1617 16.5343C26.5184 16.5968 26.7566 16.9345 26.6936 17.2887Z" fill="black"/>
<path d="M30.0657 18.5388C30.4224 18.6012 30.7626 18.3647 30.8255 18.0106C30.8884 17.6564 30.6502 17.3186 30.2935 17.2562L28.0406 16.8618C27.6839 16.7993 27.3437 17.0358 27.2808 17.39C27.2179 17.7441 27.4561 18.0819 27.8128 18.1443L30.0657 18.5388Z" fill="black"/>
<path d="M22.8425 7.19338C22.8425 7.34117 22.7922 7.48957 22.689 7.61163L19.0355 11.9348C18.9688 12.0139 18.8872 12.0731 18.7982 12.112C18.5249 11.842 18.2188 11.6046 17.8868 11.4059C17.9057 11.2959 17.9534 11.1895 18.0308 11.0977L21.6843 6.77452C21.917 6.49901 22.3307 6.46302 22.6082 6.69427C22.7627 6.82307 22.8425 7.00761 22.8425 7.19338Z" fill="black"/>
<path d="M25.387 4.42577C25.6198 4.15027 25.5836 3.73953 25.3061 3.50836C25.0287 3.27719 24.615 3.31312 24.3822 3.58862L22.9117 5.32868C22.6789 5.60418 22.7151 6.01492 22.9925 6.24609C23.27 6.47726 23.6837 6.44133 23.9165 6.16583L25.387 4.42577Z" fill="black"/>
<path d="M12.6487 11.5945C12.3325 11.8159 12.0444 12.0746 11.7909 12.3637C11.685 12.326 11.5872 12.261 11.5096 12.1691L10.452 10.9177C10.2191 10.6422 10.2553 10.2314 10.5328 10.0002C10.6557 9.89788 10.8052 9.84795 10.954 9.84795C11.1411 9.84795 11.327 9.92698 11.4567 10.0804L12.5143 11.332C12.581 11.4108 12.6255 11.5009 12.6487 11.5945Z" fill="black"/>
<path d="M6.16656 3.82254C5.93374 3.54704 5.52008 3.5111 5.24261 3.74227C4.96515 3.97344 4.92896 4.38418 5.16178 4.65968L9.25638 9.50491C9.4892 9.78041 9.90287 9.81635 10.1803 9.58518C10.4578 9.354 10.494 8.94327 10.2612 8.66777L6.16656 3.82254Z" fill="black"/>
<path d="M10.866 17.0529C10.7804 17.1248 10.675 17.1758 10.5566 17.1967L8.9363 17.4803C8.57954 17.5428 8.23944 17.3063 8.17651 16.9521C8.16973 16.9138 8.16649 16.8757 8.16649 16.8382C8.16649 16.528 8.39029 16.2534 8.70848 16.1977L10.3288 15.9141C10.4309 15.8961 10.5317 15.9027 10.6251 15.9298C10.6599 16.3196 10.7421 16.6959 10.866 17.0529Z" fill="black"/>
<path d="M6.87979 16.5175L0.606495 17.6159C0.249796 17.6783 0.011621 18.0161 0.0745167 18.3702C0.137412 18.7244 0.477561 18.9609 0.834261 18.8985L7.10756 17.8001C7.46426 17.7377 7.70243 17.3999 7.63954 17.0458C7.57664 16.6916 7.23649 16.4551 6.87979 16.5175Z" fill="black"/>
<path d="M14.4776 20.5242L13.915 22.0593C13.7911 22.3973 13.4148 22.5716 13.0744 22.4487C12.808 22.3523 12.6427 22.1025 12.6427 21.8367C12.6427 21.7627 12.6555 21.6875 12.6824 21.614L13.2451 20.0788C13.2804 19.9824 13.3363 19.8992 13.4061 19.8326C13.7527 19.9922 14.1217 20.1119 14.5069 20.1859C14.5268 20.2955 14.5188 20.4119 14.4776 20.5242Z" fill="black"/>
<path d="M12.041 23.3467L9.86226 29.2903C9.73838 29.6282 9.91387 30.0019 10.2542 30.1249C10.5946 30.2479 10.9709 30.0737 11.0948 29.7357L13.2735 23.7922C13.3974 23.4542 13.2219 23.0805 12.8815 22.9575C12.5412 22.8345 12.1648 23.0088 12.041 23.3467Z" fill="black"/>
<path d="M20.3034 20.9962C20.1804 21.0985 20.031 21.1485 19.8821 21.1485C19.695 21.1485 19.5092 21.0694 19.3795 20.916L18.3219 19.6645C18.2552 19.5856 18.2106 19.4955 18.1875 19.402C18.5037 19.1805 18.7918 18.9218 19.0452 18.6327C19.1512 18.6704 19.249 18.7355 19.3266 18.8273L20.3842 20.0787C20.6171 20.3542 20.5808 20.765 20.3034 20.9962Z" fill="black"/>
<path d="M21.5821 21.4917C21.3493 21.2162 20.9356 21.1803 20.6581 21.4115C20.3807 21.6426 20.3445 22.0534 20.5773 22.3289L24.6719 27.1741C24.9047 27.4496 25.3184 27.4855 25.5958 27.2544C25.8733 27.0232 25.9095 26.6125 25.6767 26.337L21.5821 21.4917Z" fill="black"/>
<path d="M22.6673 14.1592C22.6673 14.4694 22.4435 14.744 22.1253 14.7997L20.505 15.0833C20.4029 15.1013 20.302 15.0947 20.2087 15.0676C20.1738 14.6778 20.0916 14.3015 19.9678 13.9445C20.0534 13.8726 20.1587 13.8216 20.2772 13.8007L21.8975 13.5171C22.2542 13.4546 22.5943 13.6911 22.6572 14.0453C22.664 14.0836 22.6673 14.1217 22.6673 14.1592Z" fill="black"/>
<path d="M30.0071 12.0993L23.7338 13.1976C23.3771 13.26 23.1389 13.5978 23.2018 13.9519C23.2647 14.3061 23.6049 14.5426 23.9616 14.4802L30.2349 13.3818C30.5916 13.3194 30.8297 12.9816 30.7668 12.6275C30.7039 12.2733 30.3638 12.0368 30.0071 12.0993Z" fill="black"/>
<path d="M18.2068 9.16153C18.2068 9.2355 18.194 9.3107 18.167 9.38421L17.6044 10.9194C17.5691 11.0158 17.5132 11.099 17.4433 11.1656C17.0968 11.006 16.7278 10.8863 16.3425 10.8123C16.3225 10.7027 16.3307 10.5863 16.3718 10.474L16.9345 8.93886C17.0584 8.60086 17.4347 8.42658 17.7751 8.54955C18.0415 8.64588 18.2068 8.89552 18.2068 9.16153Z" fill="black"/>
<path d="M19.742 1.26185L17.5633 7.20541C17.4394 7.54336 17.6149 7.91703 17.9553 8.04004C18.2956 8.16304 18.672 7.98879 18.7959 7.65084L20.9745 1.70728C21.0984 1.36933 20.9229 0.995657 20.5826 0.872653C20.2422 0.749649 19.8659 0.923899 19.742 1.26185Z" fill="black"/>
<path d="M15.8903 6.10474V10.4547C15.8903 10.5578 15.8662 10.6552 15.8234 10.7417C15.6899 10.7306 15.5548 10.7249 15.4185 10.7249C15.1631 10.7249 14.9124 10.7447 14.6678 10.7828C14.6112 10.6865 14.5787 10.5744 14.5787 10.4547V6.10474C14.5787 5.74514 14.8723 5.45355 15.2345 5.45355C15.4157 5.45355 15.5795 5.52645 15.6983 5.64437C15.8169 5.76214 15.8903 5.92494 15.8903 6.10474Z" fill="black"/>
<path d="M15.8903 0.651184C15.8903 0.291545 15.5967 0 15.2345 0C14.8723 0 14.5787 0.291545 14.5787 0.651184V4.22657C14.5787 4.58621 14.8723 4.87776 15.2345 4.87776C15.5967 4.87776 15.8903 4.58621 15.8903 4.22657V0.651184Z" fill="black"/>
<path d="M11.4612 12.7718C11.2416 13.0846 11.0587 13.4248 10.9188 13.7861C10.8066 13.7865 10.6928 13.7585 10.5887 13.6988L6.79473 11.5238C6.48116 11.344 6.37366 10.9456 6.55473 10.6343C6.73581 10.3228 7.13699 10.216 7.45055 10.3958L11.2445 12.5708C11.3343 12.6223 11.4071 12.6917 11.4612 12.7718Z" fill="black"/>
<path d="M2.69617 7.66934C2.38249 7.48952 1.98139 7.59624 1.80029 7.90769C1.61919 8.21915 1.72667 8.61741 2.04034 8.79723L5.15878 10.5849C5.47246 10.7647 5.87356 10.658 6.05466 10.3466C6.23576 10.0351 6.12828 9.63686 5.81461 9.45704L2.69617 7.66934Z" fill="black"/>
<path d="M11.6745 18.5022C11.6188 18.5995 11.5372 18.6835 11.4326 18.7436L7.63863 20.9184C7.32491 21.0984 6.92389 20.9916 6.74281 20.6801C6.68312 20.5775 6.65474 20.4656 6.65474 20.355C6.65474 20.13 6.77243 19.9112 6.98281 19.7906L10.7768 17.6156C10.8664 17.5642 10.9631 17.5363 11.0597 17.5299C11.2252 17.8792 11.4321 18.2054 11.6745 18.5022Z" fill="black"/>
<path d="M5.34674 20.7295L2.2283 22.5172C1.91462 22.697 1.80715 23.0952 1.98825 23.4067C2.16935 23.7181 2.57045 23.8249 2.88412 23.645L6.00257 21.8573C6.31624 21.6775 6.42372 21.2793 6.24261 20.9678C6.06151 20.6564 5.66042 20.5496 5.34674 20.7295Z" fill="black"/>
<path d="M16.2582 20.5456V24.8956C16.2582 25.2552 15.9645 25.5468 15.6023 25.5468C15.4211 25.5468 15.2573 25.4739 15.1385 25.356C15.0199 25.2382 14.9465 25.0754 14.9465 24.8956V20.5456C14.9465 20.4425 14.9706 20.3451 15.0135 20.2586C15.1469 20.2698 15.282 20.2754 15.4183 20.2754C15.6738 20.2754 15.9244 20.2557 16.169 20.2176C16.2256 20.3139 16.2582 20.426 16.2582 20.5456Z" fill="black"/>
<path d="M16.2582 26.7734C16.2582 26.4138 15.9645 26.1222 15.6023 26.1222C15.2401 26.1222 14.9465 26.4138 14.9465 26.7734V30.3488C14.9465 30.7085 15.2401 31 15.6023 31C15.9645 31 16.2582 30.7085 16.2582 30.3488V26.7734Z" fill="black"/>
<path d="M24.2621 20.3646C24.1406 20.5735 23.9202 20.6903 23.6934 20.6903C23.5822 20.6903 23.4695 20.6621 23.3663 20.603L19.5722 18.428C19.4824 18.3766 19.4094 18.3072 19.3556 18.2271C19.5753 17.9142 19.7582 17.5741 19.8981 17.2128C20.0102 17.2123 20.1239 17.2403 20.228 17.3001L24.0221 19.4751C24.3357 19.6549 24.4432 20.0532 24.2621 20.3646Z" fill="black"/>
<path d="M25.6678 20.4146C25.3541 20.2348 24.953 20.3415 24.7719 20.653C24.5908 20.9644 24.6983 21.3627 25.012 21.5425L28.1304 23.3302C28.4441 23.51 28.8452 23.4033 29.0263 23.0919C29.2074 22.7804 29.0999 22.3821 28.7862 22.2023L25.6678 20.4146Z" fill="black"/>
<path d="M24.1873 10.6435C24.1873 10.8685 24.0696 11.0873 23.8592 11.2078L20.0653 13.3828C19.9757 13.4343 19.8789 13.4622 19.7824 13.4686C19.6169 13.1193 19.4099 12.7931 19.1676 12.4963C19.2233 12.399 19.3049 12.3149 19.4094 12.2549L23.2034 10.0801C23.5171 9.9001 23.9182 10.0068 24.0992 10.3184C24.1589 10.421 24.1873 10.5329 24.1873 10.6435Z" fill="black"/>
<path d="M27.9612 7.35376L24.8427 9.14145C24.5291 9.32127 24.4216 9.71953 24.6027 10.031C24.7838 10.3424 25.1849 10.4492 25.4986 10.2693L28.617 8.48164C28.9307 8.30182 29.0381 7.90357 28.857 7.59211C28.6759 7.28065 28.2748 7.17394 27.9612 7.35376Z" fill="black"/>
<path d="M87.3598 9.40875C86.9338 9.40875 86.5653 9.25407 86.2528 8.94379C85.9403 8.63352 85.7838 8.26688 85.7838 7.84466C85.7838 7.42243 85.9405 7.05258 86.2528 6.73587C86.5653 6.41839 86.9338 6.2605 87.3598 6.2605C87.7858 6.2605 88.1739 6.41839 88.4862 6.73587C88.7987 7.05258 88.9552 7.42243 88.9552 7.84466C88.9552 8.26688 88.7985 8.63352 88.4862 8.94379C88.1737 9.25407 87.7987 9.40875 87.3598 9.40875Z" fill="black"/>
<path d="M44.3225 10.5983H46.8352V20.025C46.8352 21.5569 46.3264 22.7253 45.3095 23.5304C44.2926 24.3355 43.0655 24.7384 41.6298 24.7384C40.5529 24.7384 39.605 24.5336 38.7877 24.1243C37.9696 23.7149 37.3414 23.1146 36.9024 22.3225L39.0969 21.0751C39.6017 21.9986 40.4726 22.4611 41.7094 22.4611C42.5202 22.4611 43.1589 22.2499 43.624 21.8277C44.0898 21.4047 44.3227 20.8042 44.3227 20.025V18.9557C43.5646 19.959 42.5006 20.461 41.1307 20.461C39.7607 20.461 38.5409 19.9694 37.5906 18.9856C36.6402 18.0025 36.1647 16.8041 36.1647 15.3907C36.1647 13.9773 36.6434 12.7967 37.6003 11.8063C38.558 10.8159 39.7348 10.3211 41.1307 10.3211C42.5266 10.3211 43.5646 10.8231 44.3227 11.8264L44.3225 10.5983ZM39.5252 17.3415C40.0503 17.85 40.7183 18.1039 41.5299 18.1039C42.3415 18.1039 43.0086 17.8501 43.5345 17.3415C44.0595 16.8338 44.3225 16.1827 44.3225 15.3906C44.3225 14.5985 44.0595 13.9683 43.5345 13.4598C43.0086 12.9522 42.3407 12.6975 41.5299 12.6975C40.719 12.6975 40.0504 12.9522 39.5252 13.4598C39.0002 13.9683 38.7372 14.6121 38.7372 15.3906C38.7372 16.169 39.0002 16.8338 39.5252 17.3415Z" fill="black"/>
<path d="M50.3454 16.5994C50.6912 17.8403 51.6285 18.4609 53.1574 18.4609C54.141 18.4609 54.8862 18.1305 55.391 17.4705L57.4653 18.6583C56.4818 20.0717 55.0322 20.7777 53.1176 20.7777C51.4685 20.7777 50.1456 20.2829 49.1482 19.2925C48.1507 18.3021 47.6524 17.0547 47.6524 15.5494C47.6524 14.0441 48.1442 12.8136 49.1286 11.816C50.1122 10.8199 51.3751 10.3211 52.9179 10.3211C54.3804 10.3211 55.5872 10.8231 56.5384 11.8264C57.4888 12.8296 57.9643 14.0706 57.9643 15.5494C57.9643 15.8797 57.931 16.2295 57.8645 16.5994H50.3454ZM50.3056 14.6186H55.391C55.2449 13.9449 54.9429 13.4436 54.4836 13.1133C54.025 12.7837 53.5032 12.6185 52.9181 12.6185C52.2266 12.6185 51.6544 12.7933 51.2032 13.143C50.7504 13.4928 50.4518 13.9844 50.3056 14.6186Z" fill="black"/>
<path d="M64.3058 10.3211C65.3958 10.3211 66.2966 10.6845 67.0084 11.4106C67.7193 12.1366 68.0756 13.1399 68.0756 14.4204V20.5005H65.5029V14.7371C65.5029 14.0772 65.3227 13.5727 64.9639 13.2222C64.6052 12.8724 64.1264 12.6976 63.5283 12.6976C62.8627 12.6976 62.3312 12.9024 61.9327 13.3117C61.5334 13.7211 61.3338 14.3352 61.3338 15.153V20.5006H58.7611V10.5983H61.3338V11.7071C61.9588 10.7836 62.9496 10.3211 64.3058 10.3211Z" fill="black"/>
<path d="M71.4489 16.5994C71.7947 17.8403 72.732 18.4609 74.261 18.4609C75.2445 18.4609 75.9897 18.1305 76.4945 17.4705L78.5688 18.6583C77.5853 20.0717 76.1357 20.7777 74.2212 20.7777C72.572 20.7777 71.2491 20.2829 70.2517 19.2925C69.2542 18.3021 68.7559 17.0547 68.7559 15.5494C68.7559 14.0441 69.2477 12.8136 70.2321 11.816C71.2157 10.8199 72.4786 10.3211 74.0214 10.3211C75.4839 10.3211 76.6907 10.8231 77.6419 11.8264C78.5923 12.8296 79.0678 14.0706 79.0678 15.5494C79.0678 15.8797 79.0345 16.2295 78.968 16.5994H71.4489ZM71.4091 14.6186H76.4945C76.3484 13.9449 76.0464 13.4436 75.5871 13.1133C75.1285 12.7837 74.6068 12.6185 74.0216 12.6185C73.3301 12.6185 72.7579 12.7933 72.3067 13.143C71.8539 13.4928 71.5553 13.9844 71.4091 14.6186Z" fill="black"/>
<path d="M85.2671 13.0536H83.0134V17.1731C83.0134 17.5165 83.0994 17.7678 83.2723 17.9258C83.4452 18.0846 83.6976 18.1732 84.0304 18.1934C84.3624 18.2127 84.7746 18.2102 85.2673 18.1837V20.5005C83.4988 20.6987 82.2522 20.5336 81.5274 20.0057C80.8027 19.4771 80.4399 18.5335 80.4399 17.1733V13.0537H78.7047V10.5983H80.4399V8.59823L83.0134 7.82545V10.5983H85.2671V13.0536Z" fill="black"/>
<path d="M88.6577 10.5983H86.085V20.5005H88.6577V10.5983Z" fill="black"/>
<path d="M104 13.5682C104 15.3636 103.429 16.9205 102.287 18.2397L103.721 19.7281L101.766 21.451L100.249 19.8764C99.172 20.4775 98.0024 20.7773 96.7397 20.7773C94.7318 20.7773 93.0234 20.0811 91.6137 18.6878C90.2039 17.2954 89.4995 15.5886 89.4995 13.5682C89.4995 11.5479 90.2039 9.842 91.6137 8.44958C93.0234 7.05625 94.7318 6.36004 96.7397 6.36004C98.7475 6.36004 100.46 7.05625 101.875 8.44958C103.292 9.842 104 11.5488 104 13.5682ZM96.7469 18.1035C97.2655 18.1035 97.7849 18.0222 98.3052 17.8594L96.0019 15.4702L97.9563 13.7473L100.398 16.2792C100.964 15.4879 101.247 14.5845 101.247 13.5684C101.247 12.2484 100.816 11.1597 99.9512 10.3007C99.0869 9.4432 98.0164 9.01378 96.7398 9.01378C95.4632 9.01378 94.3928 9.44336 93.5284 10.3007C92.6641 11.1597 92.2323 12.2484 92.2323 13.5684C92.2323 14.8884 92.665 15.9586 93.5309 16.8168C94.396 17.675 95.4678 18.1035 96.7469 18.1035Z" fill="black"/>
</svg>
