<svg width="94" height="94" viewBox="0 0 94 94" fill="none" xmlns="http://www.w3.org/2000/svg">
<path d="M40.42 68.62L73.555 35.485L66.975 28.905L40.42 55.46L27.025 42.065L20.445 48.645L40.42 68.62ZM47 94C40.4983 94 34.3883 92.7663 28.67 90.2988C22.9517 87.8313 17.9775 84.4825 13.7475 80.2525C9.5175 76.0225 6.16875 71.0483 3.70125 65.33C1.23375 59.6117 0 53.5017 0 47C0 40.4983 1.23375 34.3883 3.70125 28.67C6.16875 22.9517 9.5175 17.9775 13.7475 13.7475C17.9775 9.5175 22.9517 6.16875 28.67 3.70125C34.3883 1.23375 40.4983 0 47 0C53.5017 0 59.6117 1.23375 65.33 3.70125C71.0483 6.16875 76.0225 9.5175 80.2525 13.7475C84.4825 17.9775 87.8313 22.9517 90.2988 28.67C92.7663 34.3883 94 40.4983 94 47C94 53.5017 92.7663 59.6117 90.2988 65.33C87.8313 71.0483 84.4825 76.0225 80.2525 80.2525C76.0225 84.4825 71.0483 87.8313 65.33 90.2988C59.6117 92.7663 53.5017 94 47 94Z" fill="#5498EE"/>
</svg>
