<svg width="17" height="18" viewBox="0 0 17 18" fill="none" xmlns="http://www.w3.org/2000/svg">
<path d="M7.80671 6.3225C7.59846 6.38136 7.40033 6.46611 7.21581 6.57326C7.16819 6.53191 7.1301 6.47722 7.10739 6.41195L6.03563 3.33268C5.96734 3.13642 6.06411 2.91945 6.25178 2.84804C6.2926 2.83248 6.33435 2.82518 6.37534 2.82518C6.52304 2.82518 6.66173 2.92051 6.71513 3.074L7.7869 6.15327C7.80637 6.2093 7.81241 6.26701 7.80671 6.3225Z" fill="#141414"/>
<path d="M5.92277 0.80413C5.85448 0.607901 5.647 0.506724 5.45935 0.578146C5.27171 0.649567 5.17496 0.866541 5.24326 1.06277L5.67462 2.30216C5.74292 2.49839 5.9504 2.59956 6.13804 2.52814C6.32568 2.45672 6.42243 2.23975 6.35414 2.04352L5.92277 0.80413Z" fill="#141414"/>
<path d="M5.93619 8.28935C5.88279 8.50064 5.85269 8.72179 5.84895 8.94971C5.7907 8.97229 5.72616 8.97949 5.6606 8.9674L2.57464 8.39837C2.37804 8.36209 2.24674 8.16601 2.28135 7.96033C2.31231 7.77697 2.46486 7.64785 2.63705 7.64785C2.65788 7.64785 2.67897 7.64972 2.70023 7.65363L5.78619 8.22266C5.84232 8.23297 5.89308 8.25636 5.93619 8.28935Z" fill="#141414"/>
<path d="M0.42441 7.23388C0.227757 7.19762 0.0402286 7.33494 0.00555342 7.54059C-0.0291217 7.74624 0.102187 7.94235 0.29884 7.97861L1.5409 8.20764C1.73755 8.2439 1.92508 8.10658 1.95976 7.90093C1.99443 7.69528 1.86312 7.49917 1.66647 7.46291L0.42441 7.23388Z" fill="#141414"/>
<path d="M7.13228 11.3763C7.12182 11.4401 7.09554 11.5019 7.05286 11.5552L5.03866 14.0654C4.91034 14.2254 4.68228 14.2463 4.5293 14.112C4.4441 14.0372 4.40014 13.9301 4.40014 13.8222C4.40014 13.7364 4.42786 13.6502 4.48475 13.5794L6.49894 11.0691C6.53576 11.0232 6.58075 10.9888 6.62981 10.9662C6.78049 11.123 6.9492 11.2608 7.13228 11.3763Z" fill="#141414"/>
<path d="M2.99793 15.4293C2.86958 15.5893 2.88953 15.8278 3.0425 15.962C3.19547 16.0962 3.42353 16.0754 3.55188 15.9154L4.36258 14.905C4.49094 14.7451 4.47098 14.5066 4.31802 14.3723C4.16505 14.2381 3.93699 14.259 3.80863 14.419L2.99793 15.4293Z" fill="#141414"/>
<path d="M10.752 15.1507C10.7112 15.1663 10.6694 15.1736 10.6285 15.1736C10.4808 15.1736 10.3421 15.0783 10.2887 14.9248L9.21689 11.8455C9.19742 11.7895 9.19138 11.7318 9.19708 11.6763C9.40533 11.6174 9.60346 11.5327 9.78798 11.4255C9.8356 11.4669 9.87369 11.5216 9.8964 11.5868L10.9682 14.6661C11.0364 14.8624 10.9397 15.0793 10.752 15.1507Z" fill="#141414"/>
<path d="M11.0772 17.195C11.1455 17.3912 11.353 17.4924 11.5406 17.421C11.7283 17.3495 11.825 17.1326 11.7567 16.9363L11.3254 15.6969C11.2571 15.5007 11.0496 15.3995 10.862 15.471C10.6743 15.5424 10.5776 15.7594 10.6459 15.9556L11.0772 17.195Z" fill="#141414"/>
<path d="M14.7165 10.0386C14.6857 10.222 14.533 10.3511 14.3609 10.3511C14.3401 10.3511 14.319 10.3492 14.2977 10.3453L11.2118 9.77629C11.1556 9.76597 11.1049 9.74259 11.0618 9.70959C11.1152 9.49831 11.1453 9.27715 11.149 9.04924C11.2073 9.02665 11.2718 9.01945 11.3374 9.03154L14.4232 9.60057C14.6199 9.63686 14.7512 9.83293 14.7165 10.0386Z" fill="#141414"/>
<path d="M16.5756 10.7645C16.7722 10.8007 16.9598 10.6634 16.9944 10.4577C17.0291 10.2521 16.8978 10.056 16.7012 10.0197L15.4591 9.7907C15.2624 9.75444 15.0749 9.89175 15.0402 10.0974C15.0056 10.3031 15.1369 10.4992 15.3335 10.5354L16.5756 10.7645Z" fill="#141414"/>
<path d="M12.5933 4.1768C12.5933 4.26261 12.5656 4.34878 12.5087 4.41966L10.4945 6.9299C10.4577 6.97579 10.4127 7.0102 10.3637 7.03279C10.213 6.87602 10.0443 6.73818 9.86119 6.62276C9.87165 6.55891 9.89793 6.49711 9.94061 6.44384L11.9548 3.93359C12.0831 3.77362 12.3112 3.75272 12.4642 3.887C12.5494 3.96178 12.5933 4.06894 12.5933 4.1768Z" fill="#141414"/>
<path d="M13.9961 2.5698C14.1245 2.40983 14.1045 2.17134 13.9516 2.03711C13.7986 1.90288 13.5706 1.92375 13.4422 2.08371L12.6315 3.09407C12.5031 3.25404 12.5231 3.49253 12.6761 3.62676C12.829 3.76099 13.0571 3.74013 13.1854 3.58016L13.9961 2.5698Z" fill="#141414"/>
<path d="M6.97336 6.73226C6.79905 6.86085 6.6402 7.01104 6.50049 7.17893C6.44207 7.15706 6.38816 7.11926 6.34539 7.06591L5.76231 6.3393C5.63391 6.17933 5.65389 5.94083 5.80687 5.80656C5.87464 5.74716 5.95704 5.71817 6.0391 5.71817C6.14224 5.71817 6.24471 5.76405 6.31622 5.85316L6.8993 6.57985C6.93603 6.62564 6.96061 6.67793 6.97336 6.73226Z" fill="#141414"/>
<path d="M3.3997 2.21954C3.27134 2.05957 3.04328 2.0387 2.89032 2.17293C2.73735 2.30716 2.71739 2.54565 2.84575 2.70562L5.10316 5.51898C5.23151 5.67895 5.45957 5.69982 5.61254 5.56559C5.76551 5.43136 5.78546 5.19286 5.6571 5.0329L3.3997 2.21954Z" fill="#141414"/>
<path d="M5.99055 9.90167C5.94335 9.94346 5.88527 9.97307 5.81997 9.98517L4.92669 10.1499C4.73 10.1861 4.5425 10.0488 4.50781 9.84315C4.50407 9.82092 4.50228 9.79878 4.50228 9.77699C4.50228 9.59692 4.62567 9.43748 4.80109 9.40511L5.69437 9.24042C5.75067 9.23002 5.80628 9.23384 5.85772 9.24958C5.87694 9.47589 5.92226 9.69438 5.99055 9.90167Z" fill="#141414"/>
<path d="M3.79291 9.59083L0.334368 10.2286C0.137716 10.2648 0.00640678 10.4609 0.041082 10.6666C0.0757571 10.8722 0.263285 11.0096 0.459938 10.9733L3.91848 10.3356C4.11514 10.2993 4.24644 10.1032 4.21177 9.89754C4.17709 9.69189 3.98957 9.55457 3.79291 9.59083Z" fill="#141414"/>
<path d="M7.98169 11.9173L7.67149 12.8087C7.60321 13.0049 7.39573 13.1061 7.20806 13.0347C7.0612 12.9788 6.97005 12.8337 6.97005 12.6794C6.97005 12.6364 6.9771 12.5927 6.99199 12.5501L7.30219 11.6587C7.32166 11.6027 7.35244 11.5544 7.39096 11.5157C7.58203 11.6084 7.78544 11.6779 7.99785 11.7208C8.00882 11.7845 8.0044 11.8521 7.98169 11.9173Z" fill="#141414"/>
<path d="M6.63832 13.5562L5.43718 17.0073C5.36889 17.2035 5.46564 17.4205 5.65328 17.4919C5.84092 17.5633 6.0484 17.4621 6.1167 17.2659L7.31784 13.8148C7.38614 13.6186 7.28939 13.4016 7.10174 13.3302C6.9141 13.2588 6.70662 13.3599 6.63832 13.5562Z" fill="#141414"/>
<path d="M11.1935 12.1914C11.1257 12.2508 11.0433 12.2798 10.9613 12.2798C10.8581 12.2798 10.7556 12.2339 10.6841 12.1448L10.1011 11.4181C10.0643 11.3723 10.0397 11.32 10.027 11.2657C10.2013 11.1371 10.3602 10.9869 10.4999 10.819C10.5583 10.8409 10.6122 10.8787 10.655 10.932L11.238 11.6586C11.3664 11.8186 11.3465 12.0571 11.1935 12.1914Z" fill="#141414"/>
<path d="M11.8985 12.4791C11.7701 12.3191 11.542 12.2982 11.3891 12.4325C11.2361 12.5667 11.2162 12.8052 11.3445 12.9652L13.6019 15.7785C13.7303 15.9385 13.9583 15.9593 14.1113 15.8251C14.2643 15.6909 14.2842 15.4524 14.1559 15.2924L11.8985 12.4791Z" fill="#141414"/>
<path d="M12.4967 8.2215C12.4967 8.40157 12.3734 8.56101 12.1979 8.59338L11.3046 8.75807C11.2484 8.76847 11.1927 8.76465 11.1413 8.74891C11.1221 8.5226 11.0768 8.30411 11.0085 8.09682C11.0557 8.05503 11.1137 8.02542 11.1791 8.01332L12.0723 7.84864C12.269 7.81236 12.4565 7.94965 12.4912 8.15534C12.4949 8.17757 12.4967 8.19971 12.4967 8.2215Z" fill="#141414"/>
<path d="M16.5433 7.02537L13.0847 7.66311C12.8881 7.69937 12.7568 7.89548 12.7914 8.10113C12.8261 8.30678 13.0136 8.4441 13.2103 8.40784L16.6688 7.7701C16.8655 7.73384 16.9968 7.53773 16.9621 7.33208C16.9275 7.12643 16.7399 6.98911 16.5433 7.02537Z" fill="#141414"/>
<path d="M10.0376 5.3196C10.0376 5.36255 10.0306 5.40621 10.0157 5.4489L9.7055 6.34028C9.68603 6.3963 9.65525 6.44458 9.61673 6.48327C9.42566 6.39061 9.22225 6.32107 9.00984 6.27812C8.99879 6.21445 9.00329 6.14686 9.026 6.08168L9.3362 5.1903C9.40448 4.99405 9.61197 4.89285 9.79964 4.96426C9.94649 5.02019 10.0376 5.16514 10.0376 5.3196Z" fill="#141414"/>
<path d="M10.884 0.732686L9.68286 4.18378C9.61456 4.38001 9.71131 4.59699 9.89896 4.66841C10.0866 4.73983 10.2941 4.63865 10.3624 4.44243L11.5635 0.991327C11.6318 0.795098 11.5351 0.578123 11.3474 0.506702C11.1598 0.43528 10.9523 0.536457 10.884 0.732686Z" fill="#141414"/>
<path d="M8.76052 3.54469V6.0705C8.76052 6.13034 8.74725 6.1869 8.72361 6.23714C8.65006 6.23065 8.57557 6.22736 8.5004 6.22736C8.35958 6.22736 8.2214 6.23883 8.08654 6.26097C8.05533 6.20504 8.03739 6.13995 8.03739 6.0705V3.54469C8.03739 3.33589 8.19929 3.16658 8.39895 3.16658C8.49887 3.16658 8.58917 3.20891 8.65465 3.27738C8.72004 3.34576 8.76052 3.44029 8.76052 3.54469Z" fill="#141414"/>
<path d="M8.76052 0.378107C8.76052 0.169284 8.59864 0 8.39895 0C8.19927 0 8.03739 0.169284 8.03739 0.378107V2.45414C8.03739 2.66296 8.19927 2.83225 8.39895 2.83225C8.59864 2.83225 8.76052 2.66296 8.76052 2.45414V0.378107Z" fill="#141414"/>
<path d="M6.31872 7.41586C6.19763 7.59753 6.09678 7.79503 6.01965 8.00481C5.95783 8.00507 5.89508 7.9888 5.83768 7.95412L3.74602 6.69121C3.57314 6.58682 3.51387 6.35552 3.6137 6.17474C3.71353 5.99387 3.93471 5.93189 4.10758 6.03628L6.19924 7.29919C6.24873 7.32907 6.28887 7.36935 6.31872 7.41586Z" fill="#141414"/>
<path d="M1.48643 4.45317C1.3135 4.34876 1.09237 4.41072 0.992523 4.59156C0.89268 4.77241 0.951931 5.00366 1.12486 5.10807L2.8441 6.14608C3.01703 6.25049 3.23816 6.18853 3.338 6.00769C3.43785 5.82684 3.3786 5.59559 3.20566 5.49118L1.48643 4.45317Z" fill="#141414"/>
<path d="M6.43627 10.7432C6.40557 10.7997 6.36059 10.8485 6.30293 10.8834L4.21127 12.1462C4.03831 12.2507 3.81722 12.1887 3.71739 12.0078C3.68449 11.9482 3.66884 11.8832 3.66884 11.819C3.66884 11.6884 3.73372 11.5613 3.84971 11.4913L5.94137 10.2284C5.99077 10.1986 6.04409 10.1824 6.09732 10.1786C6.18856 10.3815 6.30268 10.5709 6.43627 10.7432Z" fill="#141414"/>
<path d="M2.94772 12.0365L1.22849 13.0745C1.05556 13.1789 0.996304 13.4101 1.09615 13.591C1.19599 13.7718 1.41712 13.8338 1.59005 13.7294L3.30929 12.6914C3.48222 12.587 3.54147 12.3557 3.44163 12.1749C3.34179 11.994 3.12066 11.9321 2.94772 12.0365Z" fill="#141414"/>
<path d="M8.96332 11.9297V14.4555C8.96332 14.6643 8.80142 14.8336 8.60176 14.8336C8.50185 14.8336 8.41154 14.7913 8.34606 14.7228C8.28067 14.6544 8.2402 14.5599 8.2402 14.4555V11.9297C8.2402 11.8699 8.25346 11.8133 8.2771 11.7631C8.35066 11.7695 8.42515 11.7728 8.50032 11.7728C8.64113 11.7728 8.77931 11.7614 8.91417 11.7392C8.94538 11.7952 8.96332 11.8603 8.96332 11.9297Z" fill="#141414"/>
<path d="M8.96332 15.5459C8.96332 15.337 8.80145 15.1678 8.60176 15.1678C8.40207 15.1678 8.2402 15.337 8.2402 15.5459V17.6219C8.2402 17.8307 8.40207 18 8.60176 18C8.80145 18 8.96332 17.8307 8.96332 17.6219V15.5459Z" fill="#141414"/>
<path d="M13.376 11.8246C13.309 11.9459 13.1875 12.0137 13.0625 12.0137C13.0012 12.0137 12.939 11.9974 12.8821 11.963L10.7904 10.7001C10.7409 10.6703 10.7007 10.63 10.671 10.5835C10.7921 10.4018 10.8929 10.2043 10.97 9.99452C11.0319 9.99425 11.0945 10.0105 11.1519 10.0452L13.2437 11.3081C13.4166 11.4125 13.4758 11.6438 13.376 11.8246Z" fill="#141414"/>
<path d="M14.151 11.8537C13.978 11.7492 13.7569 11.8112 13.6571 11.9921C13.5572 12.1729 13.6165 12.4041 13.7894 12.5086L15.5086 13.5466C15.6816 13.651 15.9027 13.589 16.0025 13.4082C16.1024 13.2273 16.0431 12.9961 15.8702 12.8917L14.151 11.8537Z" fill="#141414"/>
<path d="M13.3348 6.18009C13.3348 6.31072 13.2699 6.43779 13.1539 6.50777L11.0622 7.77068C11.0128 7.80056 10.9595 7.81674 10.9063 7.82048C10.815 7.61764 10.7009 7.42823 10.5673 7.2559C10.598 7.19943 10.643 7.15061 10.7007 7.11575L12.7923 5.85293C12.9653 5.74845 13.1864 5.81043 13.2862 5.9913C13.3191 6.05088 13.3348 6.11588 13.3348 6.18009Z" fill="#141414"/>
<path d="M15.4153 4.26992L13.6961 5.30794C13.5232 5.41235 13.4639 5.6436 13.5638 5.82444C13.6636 6.00529 13.8847 6.06725 14.0577 5.96284L15.7769 4.92483C15.9498 4.82041 16.0091 4.58917 15.9092 4.40832C15.8094 4.22748 15.5883 4.16551 15.4153 4.26992Z" fill="#141414"/>
</svg>
